<?xml version="1.0" encoding="UTF-8" standalone="no"?>
<svg
   xmlns:dc="http://purl.org/dc/elements/1.1/"
   xmlns:cc="http://creativecommons.org/ns#"
   xmlns:rdf="http://www.w3.org/1999/02/22-rdf-syntax-ns#"
   xmlns:svg="http://www.w3.org/2000/svg"
   xmlns="http://www.w3.org/2000/svg"
   id="svg16"
   xml:space="preserve"
   enable-background="new 0 0 100 100"
   viewBox="0 0 100 100"
   y="0px"
   x="0px"
   version="1.1"
   fill="#000000"
   width="100px"
   height="100px"><metadata
     id="metadata22"><rdf:RDF><cc:Work
         rdf:about=""><dc:format>image/svg+xml</dc:format><dc:type
           rdf:resource="http://purl.org/dc/dcmitype/StillImage" /><dc:title></dc:title></cc:Work></rdf:RDF></metadata><defs
     id="defs20" /><path
     style="fill:#1f567d;fill-opacity:1"
     id="path2"
     d="M86.679,95V76.544h2.054c2.401,0,4.354-1.952,4.354-4.355V38.878c0-2.398-1.952-4.35-4.35-4.35H73.364  c0.191,0.737,0.304,1.507,0.304,2.304v38.873c0,4.531-3.286,8.31-7.599,9.077V95"
     fill="#000000" /><path
     style="fill:#1f567d;fill-opacity:1"
     id="path4"
     d="M34.266,95V84.782c-4.314-0.767-7.599-4.546-7.599-9.077V36.832c0-0.797,0.112-1.566,0.303-2.304H11.264  c-2.399,0-4.35,1.952-4.35,4.35V72.19c0,2.402,1.952,4.355,4.35,4.355h2.056V95"
     fill="#000000" /><path
     style="fill:#1f567d;fill-opacity:1"
     id="path6"
     d="M37.946,95V81.247h-2.061c-3.055,0-5.535-2.489-5.535-5.543V36.832c0-0.824,0.184-1.604,0.507-2.304  c0.876-1.906,2.797-3.231,5.027-3.231h28.567c2.23,0,4.151,1.325,5.027,3.231c0.324,0.699,0.508,1.479,0.508,2.304v38.872  c0,3.054-2.488,5.543-5.535,5.543h-2.062V95"
     fill="#000000" /><path
     style="fill:#1f567d;fill-opacity:1"
     id="path8"
     d="M61.634,16.467C61.634,10.145,56.491,5,50.168,5c-6.323,0-11.467,5.145-11.467,11.467  c0,5.413,3.775,9.952,8.829,11.148h5.276C57.86,26.419,61.634,21.88,61.634,16.467z"
     fill="#000000" /><path
     style="fill:#1f567d;fill-opacity:1"
     id="path10"
     d="M52.806,27.615H47.53c0.848,0.201,1.729,0.318,2.638,0.318C51.078,27.933,51.957,27.815,52.806,27.615z"
     fill="#000000" /><path
     style="fill:#1f567d;fill-opacity:1"
     id="path12"
     d="M24.975,30.704c5.262,0,9.54-4.279,9.54-9.539c0-5.262-4.278-9.54-9.54-9.54c-5.26,0-9.539,4.278-9.539,9.54  C15.436,26.425,19.715,30.704,24.975,30.704z"
     fill="#000000" /><path
     style="fill:#1f567d;fill-opacity:1"
     id="path14"
     d="M75.023,30.704c5.261,0,9.54-4.279,9.54-9.539c0-5.262-4.279-9.54-9.54-9.54c-5.26,0-9.54,4.278-9.54,9.54  C65.483,26.425,69.763,30.704,75.023,30.704z"
     fill="#000000" /></svg>