<?xml version="1.0" encoding="UTF-8" standalone="no"?>
<svg
   xmlns:dc="http://purl.org/dc/elements/1.1/"
   xmlns:cc="http://creativecommons.org/ns#"
   xmlns:rdf="http://www.w3.org/1999/02/22-rdf-syntax-ns#"
   xmlns:svg="http://www.w3.org/2000/svg"
   xmlns="http://www.w3.org/2000/svg"
   id="svg2"
   version="1.1"
   xml:space="preserve"
   width="566.85156"
   height="510.21484"
   viewBox="0 0 566.85156 510.21484"><metadata
     id="metadata8"><rdf:RDF><cc:Work
         rdf:about=""><dc:format>image/svg+xml</dc:format><dc:type
           rdf:resource="http://purl.org/dc/dcmitype/StillImage" /><dc:title></dc:title></cc:Work></rdf:RDF></metadata><defs
     id="defs6"><clipPath
       clipPathUnits="userSpaceOnUse"
       id="clipPath16"><path
         d="M 0,1.8311e-4 H 567 V 567.00018 H 0 Z"
         id="path18"
         style="clip-rule:evenodd" /></clipPath></defs><g
     style="fill:#1f567d;fill-opacity:1"
     id="g10"
     transform="matrix(1.25,0,0,-1.25,-70.949219,637.80078)"><g
       style="fill:#1f567d;fill-opacity:1"
       id="g12"><g
         style="fill:#1f567d;fill-opacity:1"
         id="g14"
         clip-path="url(#clipPath16)" /></g><path
       id="path22"
       transform="matrix(0.8,0,0,-0.8,0,567)"
       d="m 354.375,70.949219 c -156.5375,0 -283.425781,126.888281 -283.425781,283.425781 0,92.74861 44.549841,175.0835 113.414061,226.78906 l 53.22656,-70.99414 C 189.80965,474.64505 158.84961,417.7524 158.84961,353.625 c 0,-107.65 87.23711,-194.92578 194.84961,-194.92578 107.6125,0 194.85156,87.27578 194.85156,194.92578 0,63.69608 -30.54729,120.25335 -77.78125,155.82422 l 53.71289,71.64258 C 593.2921,529.38181 637.80078,447.08055 637.80078,354.375 637.80078,197.8375 510.9125,70.949219 354.375,70.949219 Z"
       style="fill:#1f567d;fill-opacity:1;fill-rule:evenodd;stroke:none;stroke-width:1.25" /></g><g
     transform="translate(-70.949219,-70.949219)"
     style="display:inline"
     id="layer1" /></svg>