<?xml version="1.0" encoding="UTF-8" standalone="no"?>
<svg
   xmlns:dc="http://purl.org/dc/elements/1.1/"
   xmlns:cc="http://creativecommons.org/ns#"
   xmlns:rdf="http://www.w3.org/1999/02/22-rdf-syntax-ns#"
   xmlns:svg="http://www.w3.org/2000/svg"
   xmlns="http://www.w3.org/2000/svg"
   xmlns:sodipodi="http://sodipodi.sourceforge.net/DTD/sodipodi-0.dtd"
   xmlns:inkscape="http://www.inkscape.org/namespaces/inkscape"
   inkscape:version="1.0 (4035a4fb49, 2020-05-01)"
   sodipodi:docname="OpenEnergyFamily_Logo_OpenEnergyDatabase_icon.svg"
   width="200mm"
   height="200mm"
   viewBox="0 0 199.99999 200"
   version="1.1"
   id="svg3908"
   inkscape:export-filename="\\FS01\RL-Institut\04_Projekte\207_SzenarienDB\03-Projektinhalte\AP4_Umsetzung\OEP-Design\OpenEnergyFamily\Final\OpenEnergyFamily_Logo_OpenEnergyDatabase_icon.png"
   inkscape:export-xdpi="96"
   inkscape:export-ydpi="96">
  <sodipodi:namedview
     inkscape:current-layer="svg3908"
     inkscape:window-maximized="1"
     inkscape:window-y="-11"
     inkscape:window-x="-11"
     inkscape:cy="987.0551"
     inkscape:cx="675.99739"
     inkscape:zoom="0.52681963"
     showguides="true"
     showgrid="false"
     id="namedview22"
     inkscape:window-height="1526"
     inkscape:window-width="2880"
     inkscape:pageshadow="2"
     inkscape:pageopacity="0"
     guidetolerance="10"
     gridtolerance="10"
     objecttolerance="10"
     borderopacity="1"
     bordercolor="#666666"
     pagecolor="#ffffff"
     inkscape:document-rotation="0">
    <sodipodi:guide
       inkscape:color="rgb(0,0,255)"
       inkscape:locked="false"
       inkscape:label=""
       id="guide861"
       orientation="0,1"
       position="-48.213998,299.99999" />
    <sodipodi:guide
       inkscape:color="rgb(0,0,255)"
       inkscape:locked="false"
       inkscape:label=""
       id="guide863"
       orientation="-1,0"
       position="299.99999,438.6715" />
    <sodipodi:guide
       inkscape:color="rgb(0,0,255)"
       inkscape:locked="false"
       inkscape:label=""
       id="guide865"
       orientation="0,1"
       position="-50.222753,99.999995" />
    <sodipodi:guide
       inkscape:color="rgb(0,0,255)"
       inkscape:locked="false"
       inkscape:label=""
       id="guide867"
       orientation="-1,0"
       position="99.999995,444.69823" />
  </sodipodi:namedview>
  <defs
     id="defs3902">
    <clipPath
       clipPathUnits="userSpaceOnUse"
       id="clipPath16-1">
      <path
         d="M 0,1.8311e-4 H 567 V 567.00018 H 0 Z"
         id="path18-7"
         style="clip-rule:evenodd" />
    </clipPath>
  </defs>
  <metadata
     id="metadata3905">
    <rdf:RDF>
      <cc:Work
         rdf:about="">
        <dc:format>image/svg+xml</dc:format>
        <dc:type
           rdf:resource="http://purl.org/dc/dcmitype/StillImage" />
        <dc:title></dc:title>
      </cc:Work>
    </rdf:RDF>
  </metadata>
  <g
     id="g3299"
     transform="matrix(2.3003443,0,0,2.2844094,-2828.9456,-1342.4665)"
     style="display:inline;stroke:#1f567d;stroke-width:1.03627;stroke-miterlimit:4;stroke-dasharray:none;stroke-opacity:1">
    <path
       id="path3289"
       d="m 1273.2691,617.02224 c -7.3689,-6e-5 -13.3869,6.01811 -13.3869,13.38688 0,3.68434 1.5043,7.0421 3.9246,9.46226 l 1.4469,1.45232 2.8935,-2.89909 -1.4469,-1.44679 c -1.6836,-1.68349 -2.7218,-3.99092 -2.7218,-6.5687 0,-5.15538 4.1352,-9.2905 9.2906,-9.29044 5.1555,0 9.2903,4.13509 9.2903,9.29044 0,2.57778 -1.0325,4.88521 -2.716,6.5687 l -1.4523,1.44679 2.8991,2.89909 1.4466,-1.45232 c 2.4204,-2.42016 3.9192,-5.77792 3.9192,-9.46226 0,-7.36877 -6.018,-13.38688 -13.3869,-13.38688 z"
       style="color:#000000;font-style:normal;font-variant:normal;font-weight:normal;font-stretch:normal;font-size:medium;line-height:normal;font-family:sans-serif;font-variant-ligatures:normal;font-variant-position:normal;font-variant-caps:normal;font-variant-numeric:normal;font-variant-alternates:normal;font-feature-settings:normal;text-indent:0;text-align:start;text-decoration:none;text-decoration-line:none;text-decoration-style:solid;text-decoration-color:#000000;letter-spacing:normal;word-spacing:normal;text-transform:none;writing-mode:lr-tb;direction:ltr;text-orientation:mixed;dominant-baseline:auto;baseline-shift:baseline;text-anchor:start;white-space:normal;shape-padding:0;clip-rule:nonzero;display:inline;overflow:visible;visibility:visible;opacity:1;isolation:auto;mix-blend-mode:normal;color-interpolation:sRGB;color-interpolation-filters:linearRGB;solid-color:#000000;solid-opacity:1;vector-effect:none;fill:#1f567d;fill-opacity:1;fill-rule:nonzero;stroke:none;stroke-width:1.03627;stroke-linecap:square;stroke-linejoin:round;stroke-miterlimit:4;stroke-dasharray:none;stroke-dashoffset:0;stroke-opacity:1;paint-order:normal;color-rendering:auto;image-rendering:auto;shape-rendering:auto;text-rendering:auto;enable-background:accumulate" />
    <path
       id="path3291"
       d="m 1273.3412,588.54118 c -14.6572,0 -23.3592,1.45403 -28.6307,3.39247 -5.2719,1.93841 -7.4833,4.55287 -7.4833,7.17291 v 64.70598 0.0443 c 0,0 0.04,0.48586 0.1759,0.90911 0.1363,0.42322 0.3758,0.9487 0.7703,1.51329 0.7896,1.12915 2.1848,2.40378 4.5734,3.58646 4.7768,2.36538 13.5537,4.47337 30.593,4.47337 17.0393,0 25.7801,-2.10317 30.5263,-4.47337 2.3733,-1.18512 3.7532,-2.4715 4.5288,-3.60863 0.388,-0.56859 0.6241,-1.09282 0.7541,-1.51885 0.1306,-0.42603 0.1618,-0.92018 0.1618,-0.92018 v -0.0227 -0.0227 -64.30687 c 0,-1.32223 -0.5557,-2.8335 -1.7628,-4.13524 -1.207,-1.30173 -3.0087,-2.44076 -5.6374,-3.4257 -5.2579,-1.96986 -13.9176,-3.36474 -28.5697,-3.36474 z m 0,4.09644 c 14.3859,0 22.6906,1.4395 27.1339,3.1042 2.2217,0.83237 3.4529,1.71378 4.0688,2.37804 0.6158,0.66429 0.6706,1.06115 0.6706,1.347 v 64.1073 c -0.028,0.0511 -0.057,0.16547 -0.1987,0.37696 -0.3136,0.45967 -1.0861,1.30653 -2.9766,2.25052 -3.7807,1.88801 -12.0027,4.04101 -28.6971,4.04101 -16.6948,0 -24.9523,-2.15368 -28.775,-4.04654 -1.9112,-0.94643 -2.7053,-1.79395 -3.0322,-2.26162 -0.1504,-0.2157 -0.193,-0.33456 -0.21,-0.38803 v -64.4399 c 0,-0.038 0.2988,-1.67622 4.8004,-3.33147 4.5015,-1.65526 12.8357,-3.13747 27.2173,-3.13747 z"
       style="color:#000000;font-style:normal;font-variant:normal;font-weight:normal;font-stretch:normal;font-size:medium;line-height:normal;font-family:sans-serif;font-variant-ligatures:normal;font-variant-position:normal;font-variant-caps:normal;font-variant-numeric:normal;font-variant-alternates:normal;font-feature-settings:normal;text-indent:0;text-align:start;text-decoration:none;text-decoration-line:none;text-decoration-style:solid;text-decoration-color:#000000;letter-spacing:normal;word-spacing:normal;text-transform:none;writing-mode:lr-tb;direction:ltr;text-orientation:mixed;dominant-baseline:auto;baseline-shift:baseline;text-anchor:start;white-space:normal;shape-padding:0;clip-rule:nonzero;display:inline;overflow:visible;visibility:visible;opacity:1;isolation:auto;mix-blend-mode:normal;color-interpolation:sRGB;color-interpolation-filters:linearRGB;solid-color:#000000;solid-opacity:1;vector-effect:none;fill:#1f567d;fill-opacity:1;fill-rule:nonzero;stroke:none;stroke-width:1.03627;stroke-linecap:butt;stroke-linejoin:miter;stroke-miterlimit:4;stroke-dasharray:none;stroke-dashoffset:0;stroke-opacity:1;color-rendering:auto;image-rendering:auto;shape-rendering:auto;text-rendering:auto;enable-background:accumulate" />
    <path
       id="path3293"
       d="m 1305.2202,599.37264 c 0,0.0451 -0.051,0.18788 -0.193,0.42129 -0.2838,0.4665 -0.9922,1.32504 -2.8381,2.30042 -3.6916,1.95078 -11.9017,4.20176 -28.8468,4.20176 -16.9527,0 -25.211,-2.15496 -28.9523,-4.03545 -1.8706,-0.94024 -2.6034,-1.7788 -2.888,-2.21729 -0.1419,-0.2191 -0.1788,-0.34628 -0.1873,-0.37693 0,-0.0306 0,0.2052 0,0.2052 l -4.0963,-0.0832 c 0,0 0,0.50175 0.1277,0.93681 0.1164,0.43506 0.3335,0.97294 0.7095,1.55211 0.7518,1.15833 2.1193,2.45303 4.4846,3.64189 4.7303,2.37772 13.5004,4.47337 30.7925,4.47337 17.2989,0 26.0512,-2.18507 30.7593,-4.67292 2.354,-1.24392 3.7024,-2.60466 4.4289,-3.80266 0.3633,-0.59899 0.5654,-1.15041 0.6707,-1.59089 0.105,-0.44048 0.1107,-0.93127 0.1107,-0.93127 l -4.0966,0.14957 c 0,0 0.028,-0.21684 0,-0.17199 z"
       style="color:#000000;font-style:normal;font-variant:normal;font-weight:normal;font-stretch:normal;font-size:medium;line-height:normal;font-family:sans-serif;font-variant-ligatures:normal;font-variant-position:normal;font-variant-caps:normal;font-variant-numeric:normal;font-variant-alternates:normal;font-feature-settings:normal;text-indent:0;text-align:start;text-decoration:none;text-decoration-line:none;text-decoration-style:solid;text-decoration-color:#000000;letter-spacing:normal;word-spacing:normal;text-transform:none;writing-mode:lr-tb;direction:ltr;text-orientation:mixed;dominant-baseline:auto;baseline-shift:baseline;text-anchor:start;white-space:normal;shape-padding:0;clip-rule:nonzero;display:inline;overflow:visible;visibility:visible;opacity:1;isolation:auto;mix-blend-mode:normal;color-interpolation:sRGB;color-interpolation-filters:linearRGB;solid-color:#000000;solid-opacity:1;vector-effect:none;fill:#1f567d;fill-opacity:1;fill-rule:nonzero;stroke:none;stroke-width:1.03627;stroke-linecap:butt;stroke-linejoin:miter;stroke-miterlimit:4;stroke-dasharray:none;stroke-dashoffset:0;stroke-opacity:1;color-rendering:auto;image-rendering:auto;shape-rendering:auto;text-rendering:auto;enable-background:accumulate" />
    <path
       id="path3295"
       d="m 1305.2202,620.22067 c 0,0.0451 -0.051,0.18816 -0.193,0.42129 -0.2838,0.46653 -0.9922,1.32506 -2.8381,2.30044 -1.846,0.97541 -4.818,2.04345 -9.451,2.8492 l 0.7039,4.02994 c 4.9377,-0.85876 8.3055,-2.00999 10.6597,-3.25388 2.3539,-1.24393 3.7023,-2.60467 4.4289,-3.80264 0.3633,-0.59899 0.5653,-1.15044 0.6706,-1.59091 0.105,-0.44048 0.1107,-0.93125 0.1107,-0.93125 l -4.0965,0.14957 c 0,0 0.028,-0.21683 0,-0.17199 z m -63.9078,0.2938 c 0,-0.0306 0,0.2052 0,0.2052 l -4.0963,-0.0885 c 0,0 0,0.50164 0.1277,0.93681 0.1164,0.43517 0.3335,0.97838 0.7096,1.55764 0.7518,1.15853 2.1186,2.45305 4.4845,3.64189 2.3653,1.18883 5.7426,2.29261 10.6872,3.1153 l 0.6707,-4.04101 c -4.6528,-0.77416 -7.6468,-1.79807 -9.5177,-2.73834 -1.8712,-0.94027 -2.6034,-1.77343 -2.8881,-2.21175 -0.1419,-0.21911 -0.1788,-0.34637 -0.1873,-0.37693 z"
       style="color:#000000;font-style:normal;font-variant:normal;font-weight:normal;font-stretch:normal;font-size:medium;line-height:normal;font-family:sans-serif;font-variant-ligatures:normal;font-variant-position:normal;font-variant-caps:normal;font-variant-numeric:normal;font-variant-alternates:normal;font-feature-settings:normal;text-indent:0;text-align:start;text-decoration:none;text-decoration-line:none;text-decoration-style:solid;text-decoration-color:#000000;letter-spacing:normal;word-spacing:normal;text-transform:none;writing-mode:lr-tb;direction:ltr;text-orientation:mixed;dominant-baseline:auto;baseline-shift:baseline;text-anchor:start;white-space:normal;shape-padding:0;clip-rule:nonzero;display:inline;overflow:visible;visibility:visible;opacity:1;isolation:auto;mix-blend-mode:normal;color-interpolation:sRGB;color-interpolation-filters:linearRGB;solid-color:#000000;solid-opacity:1;vector-effect:none;fill:#1f567d;fill-opacity:1;fill-rule:nonzero;stroke:none;stroke-width:1.03627;stroke-linecap:butt;stroke-linejoin:miter;stroke-miterlimit:4;stroke-dasharray:none;stroke-dashoffset:0;stroke-opacity:1;color-rendering:auto;image-rendering:auto;shape-rendering:auto;text-rendering:auto;enable-background:accumulate" />
    <path
       id="path3297"
       d="m 1305.2202,641.92238 c 0,0.0451 -0.051,0.18788 -0.193,0.42129 -0.2838,0.4665 -0.9922,1.32503 -2.8381,2.30041 -3.6916,1.95079 -11.9017,4.20176 -28.8468,4.20176 -16.9527,0 -25.211,-2.16052 -28.9523,-4.04101 -1.8706,-0.94024 -2.6034,-1.77323 -2.888,-2.21172 -0.1419,-0.21939 -0.1788,-0.34628 -0.1873,-0.37696 0,-0.0306 0,0.2052 0,0.2052 l -4.0963,-0.0885 c 0,0 0,0.50172 0.1277,0.93681 0.1164,0.43505 0.3335,0.97291 0.7095,1.55208 0.7518,1.15836 2.1193,2.45305 4.4846,3.64189 4.7303,2.37772 13.5004,4.47893 30.7925,4.47893 17.2989,0 26.0512,-2.19061 30.7593,-4.67848 2.354,-1.24392 3.7024,-2.5991 4.4289,-3.7971 0.3633,-0.59899 0.5654,-1.15041 0.6707,-1.59089 0.105,-0.4405 0.1107,-0.93127 0.1107,-0.93127 l -4.0966,0.14418 c 0,0 0.028,-0.21144 0,-0.16632 z"
       style="color:#000000;font-style:normal;font-variant:normal;font-weight:normal;font-stretch:normal;font-size:medium;line-height:normal;font-family:sans-serif;font-variant-ligatures:normal;font-variant-position:normal;font-variant-caps:normal;font-variant-numeric:normal;font-variant-alternates:normal;font-feature-settings:normal;text-indent:0;text-align:start;text-decoration:none;text-decoration-line:none;text-decoration-style:solid;text-decoration-color:#000000;letter-spacing:normal;word-spacing:normal;text-transform:none;writing-mode:lr-tb;direction:ltr;text-orientation:mixed;dominant-baseline:auto;baseline-shift:baseline;text-anchor:start;white-space:normal;shape-padding:0;clip-rule:nonzero;display:inline;overflow:visible;visibility:visible;opacity:1;isolation:auto;mix-blend-mode:normal;color-interpolation:sRGB;color-interpolation-filters:linearRGB;solid-color:#000000;solid-opacity:1;vector-effect:none;fill:#1f567d;fill-opacity:1;fill-rule:nonzero;stroke:none;stroke-width:1.03627;stroke-linecap:butt;stroke-linejoin:miter;stroke-miterlimit:4;stroke-dasharray:none;stroke-dashoffset:0;stroke-opacity:1;color-rendering:auto;image-rendering:auto;shape-rendering:auto;text-rendering:auto;enable-background:accumulate" />
  </g>
  <flowRoot
     transform="matrix(0.26458333,0,0,0.26458333,-122.26533,0)"
     style="font-style:normal;font-variant:normal;font-weight:normal;font-stretch:normal;font-size:53.3333px;line-height:1.25;font-family:Roboto;-inkscape-font-specification:Roboto;text-align:center;letter-spacing:0px;word-spacing:0px;text-anchor:middle;fill:#000000;fill-opacity:1;stroke:none"
     id="flowRoot831"
     xml:space="preserve"><flowRegion
       id="flowRegion833"><rect
         y="-346.43185"
         x="-290.92395"
         height="651.70483"
         width="670.74127"
         id="rect835" /></flowRegion><flowPara
       id="flowPara837" /></flowRoot>
</svg>
