<?xml version="1.0" encoding="UTF-8" standalone="no"?>
<svg
   xmlns:dc="http://purl.org/dc/elements/1.1/"
   xmlns:cc="http://creativecommons.org/ns#"
   xmlns:rdf="http://www.w3.org/1999/02/22-rdf-syntax-ns#"
   xmlns:svg="http://www.w3.org/2000/svg"
   xmlns="http://www.w3.org/2000/svg"
   id="svg22"
   xml:space="preserve"
   enable-background="new 0 0 100 100"
   viewBox="0 0 100 100"
   y="0px"
   x="0px"
   version="1.1"
   fill="#000000"
   width="100px"
   height="100px"><metadata
     id="metadata28"><rdf:RDF><cc:Work
         rdf:about=""><dc:format>image/svg+xml</dc:format><dc:type
           rdf:resource="http://purl.org/dc/dcmitype/StillImage" /><dc:title></dc:title></cc:Work></rdf:RDF></metadata><defs
     id="defs26" /><g
     id="g20"><path
       style="fill:#072437;fill-opacity:1"
       id="path2"
       d="M83.778,81.138h-3.973V30.124h3.973C83.778,30.124,83.778,81.138,83.778,81.138z" /><path
       style="fill:#072437;fill-opacity:1"
       id="path4"
       d="M83.778,79.787v3.974H30.459v-3.974H83.778z" /><path
       style="fill:#072437;fill-opacity:1"
       id="path6"
       d="M51.96,81.298h-3.973v-19.23h3.973V81.298z" /><path
       style="fill:#072437;fill-opacity:1"
       id="path8"
       d="M80.997,47.844v3.973H62.562l0-3.973H80.997z" /><path
       style="fill:#072437;fill-opacity:1"
       id="path10"
       d="M88.796,49.753c0,3.794-3.075,6.869-6.869,6.869s-6.869-3.075-6.869-6.869c0-3.793,3.076-6.868,6.869-6.868   C85.721,42.885,88.796,45.959,88.796,49.753z" /><path
       style="fill:#072437;fill-opacity:1"
       id="path12"
       d="M56.603,81.851c0,3.662-2.968,6.63-6.63,6.63c-3.662,0-6.63-2.968-6.63-6.63c0-3.661,2.968-6.63,6.63-6.63   C53.635,75.221,56.603,78.19,56.603,81.851z" /><path
       style="fill:#072437;fill-opacity:1"
       id="path14"
       d="M95.002,8.726v18.75c0,2.072-1.679,3.75-3.75,3.75h-18.75c-2.071,0-3.75-1.678-3.75-3.75V8.726   c0-2.071,1.679-3.75,3.75-3.75h18.75C93.324,4.976,95.002,6.655,95.002,8.726z" /><path
       style="fill:#072437;fill-opacity:1"
       id="path16"
       d="M63.127,40.601l0,18.749c0,2.072-1.679,3.75-3.75,3.75h-18.75c-2.071,0-3.75-1.678-3.75-3.75l0-18.749   c0-2.071,1.679-3.75,3.75-3.75h18.75C61.449,36.851,63.128,38.53,63.127,40.601z" /><path
       style="fill:#072437;fill-opacity:1"
       id="path18"
       d="M31.253,72.477v18.748c0,2.072-1.679,3.751-3.75,3.751H8.753c-2.071,0-3.75-1.679-3.75-3.751V72.476   c0-2.072,1.679-3.75,3.75-3.75h18.75C29.574,68.726,31.252,70.405,31.253,72.477z" /></g></svg>