<?xml version="1.0" encoding="utf-8"?>
<!-- Generator: Adobe Illustrator 22.0.1, SVG Export Plug-In . SVG Version: 6.00 Build 0)  -->
<svg version="1.1" id="Layer_1" xmlns="http://www.w3.org/2000/svg" xmlns:xlink="http://www.w3.org/1999/xlink" x="0px" y="0px"
	 viewBox="0 0 512 512" style="enable-background:new 0 0 512 512;" xml:space="preserve" fill="#ffffff">
<path d="M41.3,131.9c-68.5,118.7-27.9,270.3,90.8,338.8s270.3,27.9,338.8-90.8S498.7,109.6,380,41.2S109.8,13.4,41.3,131.9z
	 M364.1,68.9c30.4,17.5,54.9,41.3,72.8,68.9c-15.2,6.3-29.6,13.8-43.5,22.4c-11.4-8.5-27.2-10-40.3-2.5c-3.2,1.9-5.9,4.1-8.4,6.7
	c-28.5-8.2-58.3-12.4-88.7-12.4c-30.4,0-60.3,4.2-88.7,12.4c-6.4-6.9-15.2-10.9-24.4-11.5c-0.4-27.5,3-55.3,10.3-82.6
	c0.5-1.7,0.9-3.5,1.4-5.1C218.3,31.6,297,30.2,364.1,68.9z M337.9,203.7c-20.5,20.1-38.4,43.2-53.1,68.7
	C270,298,259,325,251.8,352.8c-4.8,0.6-9.5,2.1-14,4.7c-2,1.1-3.9,2.5-5.6,4c-18.9-18.7-35.3-39.9-48.9-63.5
	c-13.6-23.6-23.8-48.5-30.5-74.1c2.1-0.8,4.2-1.6,6.2-2.8c13.8-7.9,20.5-23.6,17.6-38.5c25.6-7,52.2-10.6,79.5-10.6
	s53.9,3.6,79.5,10.6C334.3,189.6,334.9,197,337.9,203.7z M130.5,80.3c-5.6,25.6-8,51.4-7.2,77.1c-0.3,0.2-0.5,0.2-0.7,0.4
	c-11.9,6.9-18.6,19.6-18.3,32.4c-22.6,12.2-43.8,27.2-63.1,44.9c2.9-29.8,12.1-59.3,28-87C84.9,120.5,106,97.7,130.5,80.3z
	 M40.3,263.7c1.2-1.3,2.5-2.5,3.7-3.8c20-20,42.3-36.8,66.4-50.2c5.3,8,13.3,13.3,22.1,15.3c7.2,28.7,18.4,56.7,33.6,83
	s33.8,50.1,55.1,70.7c-2.8,9.3-1.9,19.8,3.3,28.8c4.1,7.2,10.3,12.3,17.4,15.4c-0.5,16.3,0.4,32.6,2.3,48.9
	c-32.8-1.8-65.6-11.1-96.1-28.7C81.5,404.6,42.9,335.7,40.3,263.7z M264.4,471.9c-2.1-15.5-2.9-31.1-2.6-46.6
	c4.3-0.6,8.6-2.1,12.6-4.4c0.3-0.2,0.4-0.3,0.7-0.4c21.8,13.4,45.4,24.3,70.4,32.3C320,464.1,292.4,470.7,264.4,471.9z M370.7,439
	c-1.8-0.5-3.4-0.8-5.2-1.3c-27.3-7.3-53-18.3-76.7-32.4c5.2-10.6,5.2-23.4-1.1-34.5c-3.9-6.7-9.6-11.7-16.1-14.8
	c6.8-25.4,16.9-50.2,30.4-73.6c13.5-23.4,29.9-44.6,48.5-63.1c11.3,7.8,26.5,8.9,39.2,1.6c5-2.9,9.1-6.9,12.2-11.4
	c24.1,13.4,46.4,30.2,66.4,50.2c1.3,1.3,2.5,2.5,3.8,3.8c-1.2,34.2-10.5,68.6-28.8,100.3C424.9,395.6,399.8,420.9,370.7,439z
	 M471.1,235c-19.4-17.6-40.5-32.6-63.1-44.8c0.1-4.7-0.6-9.4-2.4-14c13.3-8,27.1-15,41.6-21.1C460.2,180.1,468.4,207.2,471.1,235z"
	/>
</svg>
