<?xml version="1.0" encoding="UTF-8" standalone="no"?>
<!-- Created with Inkscape (http://www.inkscape.org/) -->

<svg
   xmlns:dc="http://purl.org/dc/elements/1.1/"
   xmlns:cc="http://creativecommons.org/ns#"
   xmlns:rdf="http://www.w3.org/1999/02/22-rdf-syntax-ns#"
   xmlns:svg="http://www.w3.org/2000/svg"
   xmlns="http://www.w3.org/2000/svg"
   xmlns:sodipodi="http://sodipodi.sourceforge.net/DTD/sodipodi-0.dtd"
   xmlns:inkscape="http://www.inkscape.org/namespaces/inkscape"
   version="1.1"
   id="svg10"
   xml:space="preserve"
   width="1134.08"
   height="869.28003"
   viewBox="0 0 1134.08 869.28003"
   sodipodi:docname="home_schema.svg"
   inkscape:version="0.92.1 r15371"><metadata
     id="metadata16"><rdf:RDF><cc:Work
         rdf:about=""><dc:format>image/svg+xml</dc:format><dc:type
           rdf:resource="http://purl.org/dc/dcmitype/StillImage" /><dc:title></dc:title></cc:Work></rdf:RDF></metadata><defs
     id="defs14"><clipPath
       clipPathUnits="userSpaceOnUse"
       id="clipPath26"><path
         d="M 0,1.8311e-4 H 850.56 V 651.96018 H 0 Z"
         id="path24"
         inkscape:connector-curvature="0"
         style="clip-rule:evenodd" /></clipPath><clipPath
       clipPathUnits="userSpaceOnUse"
       id="clipPath36"><path
         d="M 6.104e-6,651.96 H 850.56 V 2.4414e-4 H 1.2207e-4"
         id="path34"
         inkscape:connector-curvature="0"
         style="clip-rule:evenodd" /></clipPath><clipPath
       clipPathUnits="userSpaceOnUse"
       id="clipPath46"><path
         d="M 0,0 H 850.56 V 651.96 H 0 Z"
         id="path44"
         inkscape:connector-curvature="0"
         style="clip-rule:evenodd" /></clipPath><clipPath
       clipPathUnits="userSpaceOnUse"
       id="clipPath58"><path
         d="M 0,0 H 850.56 V 651.96 H 0 Z"
         id="path56"
         inkscape:connector-curvature="0"
         style="clip-rule:evenodd" /></clipPath><clipPath
       clipPathUnits="userSpaceOnUse"
       id="clipPath66"><path
         d="M 0,0 H 850.56 V 651.96 H 0 Z"
         id="path64"
         inkscape:connector-curvature="0"
         style="clip-rule:evenodd" /></clipPath><clipPath
       clipPathUnits="userSpaceOnUse"
       id="clipPath78"><path
         d="M 0,0 H 850.56 V 651.96 H 0 Z"
         id="path76"
         inkscape:connector-curvature="0"
         style="clip-rule:evenodd" /></clipPath><clipPath
       clipPathUnits="userSpaceOnUse"
       id="clipPath88"><path
         d="M 0,0 H 850.56 V 651.96 H 0 Z"
         id="path86"
         inkscape:connector-curvature="0"
         style="clip-rule:evenodd" /></clipPath><clipPath
       clipPathUnits="userSpaceOnUse"
       id="clipPath100"><path
         d="M 0,0 H 850.56 V 651.96 H 0 Z"
         id="path98"
         inkscape:connector-curvature="0"
         style="clip-rule:evenodd" /></clipPath><clipPath
       clipPathUnits="userSpaceOnUse"
       id="clipPath110"><path
         d="M 0,0 H 850.56 V 651.96 H 0 Z"
         id="path108"
         inkscape:connector-curvature="0"
         style="clip-rule:evenodd" /></clipPath><clipPath
       clipPathUnits="userSpaceOnUse"
       id="clipPath122"><path
         d="M 0,0 H 850.56 V 651.96 H 0 Z"
         id="path120"
         inkscape:connector-curvature="0"
         style="clip-rule:evenodd" /></clipPath><clipPath
       clipPathUnits="userSpaceOnUse"
       id="clipPath132"><path
         d="M 0,0 H 850.56 V 651.96 H 0 Z"
         id="path130"
         inkscape:connector-curvature="0"
         style="clip-rule:evenodd" /></clipPath><clipPath
       clipPathUnits="userSpaceOnUse"
       id="clipPath144"><path
         d="M 0,0 H 850.56 V 651.96 H 0 Z"
         id="path142"
         inkscape:connector-curvature="0"
         style="clip-rule:evenodd" /></clipPath><clipPath
       clipPathUnits="userSpaceOnUse"
       id="clipPath152"><path
         d="M 0,0 H 850.56 V 651.96 H 0 Z"
         id="path150"
         inkscape:connector-curvature="0"
         style="clip-rule:evenodd" /></clipPath><clipPath
       clipPathUnits="userSpaceOnUse"
       id="clipPath164"><path
         d="M 0,0 H 850.56 V 651.96 H 0 Z"
         id="path162"
         inkscape:connector-curvature="0"
         style="clip-rule:evenodd" /></clipPath><clipPath
       clipPathUnits="userSpaceOnUse"
       id="clipPath174"><path
         d="M 0,0 H 850.56 V 651.96 H 0 Z"
         id="path172"
         inkscape:connector-curvature="0"
         style="clip-rule:evenodd" /></clipPath><clipPath
       clipPathUnits="userSpaceOnUse"
       id="clipPath186"><path
         d="M 0,0 H 850.56 V 651.96 H 0 Z"
         id="path184"
         inkscape:connector-curvature="0"
         style="clip-rule:evenodd" /></clipPath><clipPath
       clipPathUnits="userSpaceOnUse"
       id="clipPath196"><path
         d="M 0,0 H 850.56 V 651.96 H 0 Z"
         id="path194"
         inkscape:connector-curvature="0"
         style="clip-rule:evenodd" /></clipPath><clipPath
       clipPathUnits="userSpaceOnUse"
       id="clipPath208"><path
         d="M 0,0 H 850.56 V 651.96 H 0 Z"
         id="path206"
         inkscape:connector-curvature="0"
         style="clip-rule:evenodd" /></clipPath><clipPath
       clipPathUnits="userSpaceOnUse"
       id="clipPath220"><path
         d="M 0,0 H 850.56 V 651.96 H 0 Z"
         id="path218"
         inkscape:connector-curvature="0"
         style="clip-rule:evenodd" /></clipPath><clipPath
       clipPathUnits="userSpaceOnUse"
       id="clipPath230"><path
         d="M 0,0 H 850.56 V 651.96 H 0 Z"
         id="path228"
         inkscape:connector-curvature="0"
         style="clip-rule:evenodd" /></clipPath><clipPath
       clipPathUnits="userSpaceOnUse"
       id="clipPath242"><path
         d="M 0,0 H 850.56 V 651.96 H 0 Z"
         id="path240"
         inkscape:connector-curvature="0"
         style="clip-rule:evenodd" /></clipPath><clipPath
       clipPathUnits="userSpaceOnUse"
       id="clipPath254"><path
         d="M 0,0 H 850.56 V 651.96 H 0 Z"
         id="path252"
         inkscape:connector-curvature="0"
         style="clip-rule:evenodd" /></clipPath><clipPath
       clipPathUnits="userSpaceOnUse"
       id="clipPath264"><path
         d="M 0,0 H 850.56 V 651.96 H 0 Z"
         id="path262"
         inkscape:connector-curvature="0"
         style="clip-rule:evenodd" /></clipPath><clipPath
       clipPathUnits="userSpaceOnUse"
       id="clipPath276"><path
         d="M 0,0 H 850.56 V 651.96 H 0 Z"
         id="path274"
         inkscape:connector-curvature="0"
         style="clip-rule:evenodd" /></clipPath><clipPath
       clipPathUnits="userSpaceOnUse"
       id="clipPath284"><path
         d="M 0,0 H 850.56 V 651.96 H 0 Z"
         id="path282"
         inkscape:connector-curvature="0"
         style="clip-rule:evenodd" /></clipPath><clipPath
       clipPathUnits="userSpaceOnUse"
       id="clipPath296"><path
         d="M 0,0 H 850.56 V 651.96 H 0 Z"
         id="path294"
         inkscape:connector-curvature="0"
         style="clip-rule:evenodd" /></clipPath><clipPath
       clipPathUnits="userSpaceOnUse"
       id="clipPath306"><path
         d="M 0,0 H 850.56 V 651.96 H 0 Z"
         id="path304"
         inkscape:connector-curvature="0"
         style="clip-rule:evenodd" /></clipPath><clipPath
       clipPathUnits="userSpaceOnUse"
       id="clipPath318"><path
         d="M 0,0 H 850.56 V 651.96 H 0 Z"
         id="path316"
         inkscape:connector-curvature="0"
         style="clip-rule:evenodd" /></clipPath><clipPath
       clipPathUnits="userSpaceOnUse"
       id="clipPath328"><path
         d="M 0,0 H 850.56 V 651.96 H 0 Z"
         id="path326"
         inkscape:connector-curvature="0"
         style="clip-rule:evenodd" /></clipPath><clipPath
       clipPathUnits="userSpaceOnUse"
       id="clipPath340"><path
         d="M 0,0 H 850.56 V 651.96 H 0 Z"
         id="path338"
         inkscape:connector-curvature="0"
         style="clip-rule:evenodd" /></clipPath><clipPath
       clipPathUnits="userSpaceOnUse"
       id="clipPath352"><path
         d="M 0,0 H 850.56 V 651.96 H 0 Z"
         id="path350"
         inkscape:connector-curvature="0"
         style="clip-rule:evenodd" /></clipPath><clipPath
       clipPathUnits="userSpaceOnUse"
       id="clipPath362"><path
         d="M 0,0 H 850.56 V 651.96 H 0 Z"
         id="path360"
         inkscape:connector-curvature="0"
         style="clip-rule:evenodd" /></clipPath><clipPath
       clipPathUnits="userSpaceOnUse"
       id="clipPath374"><path
         d="M 0,0 H 850.56 V 651.96 H 0 Z"
         id="path372"
         inkscape:connector-curvature="0"
         style="clip-rule:evenodd" /></clipPath><clipPath
       clipPathUnits="userSpaceOnUse"
       id="clipPath386"><path
         d="M 0,0 H 850.56 V 651.96 H 0 Z"
         id="path384"
         inkscape:connector-curvature="0"
         style="clip-rule:evenodd" /></clipPath><clipPath
       clipPathUnits="userSpaceOnUse"
       id="clipPath396"><path
         d="M 0,0 H 850.56 V 651.96 H 0 Z"
         id="path394"
         inkscape:connector-curvature="0"
         style="clip-rule:evenodd" /></clipPath><clipPath
       clipPathUnits="userSpaceOnUse"
       id="clipPath408"><path
         d="M 0,0 H 850.56 V 651.96 H 0 Z"
         id="path406"
         inkscape:connector-curvature="0"
         style="clip-rule:evenodd" /></clipPath><clipPath
       clipPathUnits="userSpaceOnUse"
       id="clipPath430"><path
         d="M -7.63e-7,651.96 H 850.56 V 1.2207e-4 L -1.526e-6,6.104e-6"
         id="path428"
         inkscape:connector-curvature="0"
         style="clip-rule:evenodd" /></clipPath><clipPath
       clipPathUnits="userSpaceOnUse"
       id="clipPath440"><path
         d="M 0,651.96 H 850.56 V 1.2207e-4 H 6.104e-6"
         id="path438"
         inkscape:connector-curvature="0"
         style="clip-rule:evenodd" /></clipPath></defs><sodipodi:namedview
     pagecolor="#ffffff"
     bordercolor="#666666"
     borderopacity="1"
     objecttolerance="10"
     gridtolerance="10"
     guidetolerance="10"
     inkscape:pageopacity="0"
     inkscape:pageshadow="2"
     inkscape:window-width="1920"
     inkscape:window-height="1018"
     id="namedview12"
     showgrid="false"
     inkscape:zoom="0.96286579"
     inkscape:cx="567.03998"
     inkscape:cy="434.64001"
     inkscape:window-x="1358"
     inkscape:window-y="-8"
     inkscape:window-maximized="1"
     inkscape:current-layer="g18" /><g
     id="g18"
     inkscape:groupmode="layer"
     inkscape:label="home_schema"
     transform="matrix(1.3333333,0,0,-1.3333333,0,869.28)"><g
       id="g20"><g
         id="g22"
         clip-path="url(#clipPath26)"><path
           d="M 0,-0.039917 H 850.5 V 651.96008 H 0 Z"
           style="fill:#ffffff;fill-opacity:1;fill-rule:evenodd;stroke:none"
           id="path28"
           inkscape:connector-curvature="0" /></g></g><g
       id="g30"><g
         id="g32"
         clip-path="url(#clipPath36)"><path
           d="M 296.99,64.145 C 203.91,139.69 189.8,276.26 265.45,369.19 341.11,462.12 477.89,476.21 570.96,400.67 664.03,325.13 678.15,188.56 602.49,95.63 595.86,87.476 588.63,79.815 580.88,72.708 l 7.19,-10.247 -45.58,15.201 -1.2,51.508 7.13,-10.17 c 62.76,63.08 62.4,164.99 -0.8,227.62 -63.21,62.63 -165.33,62.27 -228.09,-0.8 -62.76,-63.08 -62.4,-164.99 0.8,-227.62 3.8,-3.77 7.79,-7.34 11.94,-10.71 z"
           style="fill:#1f567d;fill-opacity:1;fill-rule:evenodd;stroke:none"
           id="path38"
           inkscape:connector-curvature="0" /></g></g><g
       id="g40"><g
         id="g42"
         clip-path="url(#clipPath46)"><text
           transform="matrix(1,0,0,-1,191.95,576.1)"
           style="font-variant:normal;font-weight:900;font-size:48px;font-family:Roboto;-inkscape-font-specification:'Roboto Heavy';writing-mode:lr-tb;fill:#000000;fill-opacity:1;fill-rule:nonzero;stroke:#000000;stroke-width:1.3714;stroke-linecap:butt;stroke-linejoin:miter;stroke-miterlimit:10;stroke-dasharray:none;stroke-opacity:1"
           id="text50"><tspan
             x="0 33.119999 60.144001 86.255997 113.328 140.20799 167.28 193.48801 211.67999 239.28"
             y="0"
             sodipodi:role="line"
             id="tspan48">OpenEnergy</tspan></text>
</g></g><g
       id="g52"><g
         id="g54"
         clip-path="url(#clipPath58)" /></g><g
       id="g60"><g
         id="g62"
         clip-path="url(#clipPath66)"><text
           transform="matrix(1,0,0,-1,468.24,576.1)"
           style="font-variant:normal;font-weight:900;font-size:48px;font-family:Roboto;-inkscape-font-specification:'Roboto Heavy';writing-mode:lr-tb;fill:#000000;fill-opacity:1;fill-rule:nonzero;stroke:#000000;stroke-width:1.3714;stroke-linecap:butt;stroke-linejoin:miter;stroke-miterlimit:10;stroke-dasharray:none;stroke-opacity:1"
           id="text70"><tspan
             x="0 31.247999 44.448002 69.935997 86.400002 103.776 130.752 148.944"
             y="0"
             sodipodi:role="line"
             id="tspan68">Platform</tspan></text>
</g></g><g
       id="g72"><g
         id="g74"
         clip-path="url(#clipPath78)" /></g><path
       d="m 145.69,211.23 21.18,21.18 h 138.01 l 21.18,-21.18 V 181.28 L 304.88,160.1 H 166.87 l -21.18,21.18 z"
       style="fill:#8aafc8;fill-opacity:1;fill-rule:evenodd;stroke:none"
       id="path80"
       inkscape:connector-curvature="0" /><g
       id="g82"><g
         id="g84"
         clip-path="url(#clipPath88)"><text
           transform="matrix(1,0,0,-1,202.06,191.5)"
           style="font-variant:normal;font-weight:900;font-size:15.96000004px;font-family:Roboto;-inkscape-font-specification:'Roboto Heavy';writing-mode:lr-tb;fill:#ffffff;fill-opacity:1;fill-rule:nonzero;stroke:#ffffff;stroke-width:0.456;stroke-linecap:butt;stroke-linejoin:miter;stroke-miterlimit:10;stroke-dasharray:none;stroke-opacity:1"
           id="text92"><tspan
             x="0 10.40592 18.944521 30.5634 34.633202 44.943359 53.450039 58.92432"
             y="0"
             sodipodi:role="line"
             id="tspan90">Raw Data</tspan></text>
</g></g><g
       id="g94"><g
         id="g96"
         clip-path="url(#clipPath100)" /></g><path
       d="M 545.82,211.23 567,232.41 h 138.01 l 21.18,-21.18 V 181.28 L 705.01,160.1 H 567 l -21.18,21.18 z"
       style="fill:#8aafc8;fill-opacity:1;fill-rule:evenodd;stroke:none"
       id="path102"
       inkscape:connector-curvature="0" /><g
       id="g104"><g
         id="g106"
         clip-path="url(#clipPath110)"><text
           transform="matrix(1,0,0,-1,594.43,191.5)"
           style="font-variant:normal;font-weight:900;font-size:15.96000004px;font-family:Roboto;-inkscape-font-specification:'Roboto Heavy';writing-mode:lr-tb;fill:#ffffff;fill-opacity:1;fill-rule:nonzero;stroke:#ffffff;stroke-width:0.456;stroke-linecap:butt;stroke-linejoin:miter;stroke-miterlimit:10;stroke-dasharray:none;stroke-opacity:1"
           id="text114"><tspan
             x="0 10.40592 19.08816 27.25968 36.26112 40.65012 46.18824 50.369759 60.67992 69.1866 74.660881"
             y="0"
             sodipodi:role="line"
             id="tspan112">Result Data</tspan></text>
</g></g><g
       id="g116"><g
         id="g118"
         clip-path="url(#clipPath122)" /></g><path
       d="m 343.79,97.441 21.18,21.179 H 502.98 L 524.16,97.441 V 67.487 L 502.98,46.307 H 364.97 l -21.18,21.18 z"
       style="fill:#486980;fill-opacity:1;fill-rule:evenodd;stroke:none"
       id="path124"
       inkscape:connector-curvature="0" /><g
       id="g126"><g
         id="g128"
         clip-path="url(#clipPath132)"><text
           transform="matrix(1,0,0,-1,390.1,86.328)"
           style="font-variant:normal;font-weight:900;font-size:15.96000004px;font-family:Roboto;-inkscape-font-specification:'Roboto Heavy';writing-mode:lr-tb;fill:#ffffff;fill-opacity:1;fill-rule:nonzero;stroke:#ffffff;stroke-width:0.456;stroke-linecap:butt;stroke-linejoin:miter;stroke-miterlimit:10;stroke-dasharray:none;stroke-opacity:1"
           id="text136"><tspan
             x="0 11.0124 19.997881 28.68012 37.681561 46.555321 55.556759 64.238998 70.192078 79.416962"
             y="0"
             sodipodi:role="line"
             id="tspan134">OpenEnergy</tspan></text>
</g></g><g
       id="g138"><g
         id="g140"
         clip-path="url(#clipPath144)" /></g><g
       id="g146"><g
         id="g148"
         clip-path="url(#clipPath152)"><text
           transform="matrix(1,0,0,-1,400.42,69.048)"
           style="font-variant:normal;font-weight:900;font-size:15.96000004px;font-family:Roboto;-inkscape-font-specification:'Roboto Heavy';writing-mode:lr-tb;fill:#ffffff;fill-opacity:1;fill-rule:nonzero;stroke:#ffffff;stroke-width:0.456;stroke-linecap:butt;stroke-linejoin:miter;stroke-miterlimit:10;stroke-dasharray:none;stroke-opacity:1"
           id="text156"><tspan
             x="0 10.31016 18.816839 24.291121 32.84568 41.831161 50.353802 58.525318"
             y="0"
             sodipodi:role="line"
             id="tspan154">Database</tspan></text>
</g></g><g
       id="g158"><g
         id="g160"
         clip-path="url(#clipPath164)" /></g><path
       d="m 344.41,210.25 21.18,21.18 H 503.6 l 21.18,-21.18 V 180.3 L 503.6,159.12 H 365.59 l -21.18,21.18 z"
       style="fill:#8aafc8;fill-opacity:1;fill-rule:evenodd;stroke:none"
       id="path166"
       inkscape:connector-curvature="0" /><g
       id="g168"><g
         id="g170"
         clip-path="url(#clipPath174)"><text
           transform="matrix(1,0,0,-1,389.16,190.51)"
           style="font-variant:normal;font-weight:900;font-size:15.96000004px;font-family:Roboto;-inkscape-font-specification:'Roboto Heavy';writing-mode:lr-tb;fill:#ffffff;fill-opacity:1;fill-rule:nonzero;stroke:#ffffff;stroke-width:0.456;stroke-linecap:butt;stroke-linejoin:miter;stroke-miterlimit:10;stroke-dasharray:none;stroke-opacity:1"
           id="text178"><tspan
             x="0 9.9909601 18.242279 26.92452 35.925961 44.400719 50.449558 54.838558 63.808079 68.1492 72.570122 81.539642"
             y="0"
             sodipodi:role="line"
             id="tspan176">Scenario log</tspan></text>
</g></g><g
       id="g180"><g
         id="g182"
         clip-path="url(#clipPath186)" /></g><path
       d="m 11.346,324.24 21.18,21.18 H 170.54 l 21.18,-21.18 V 294.29 L 170.54,273.11 H 32.526 l -21.18,21.18 z"
       style="fill:#486980;fill-opacity:1;fill-rule:evenodd;stroke:none"
       id="path188"
       inkscape:connector-curvature="0" /><g
       id="g190"><g
         id="g192"
         clip-path="url(#clipPath196)"><text
           transform="matrix(1,0,0,-1,69.6,313.15)"
           style="font-variant:normal;font-weight:900;font-size:15.96000004px;font-family:Roboto;-inkscape-font-specification:'Roboto Heavy';writing-mode:lr-tb;fill:#ffffff;fill-opacity:1;fill-rule:nonzero;stroke:#ffffff;stroke-width:0.456;stroke-linecap:butt;stroke-linejoin:miter;stroke-miterlimit:10;stroke-dasharray:none;stroke-opacity:1"
           id="text200"><tspan
             x="0 9.9909601 18.242279 26.92452 35.925961 44.400719 50.449558 54.838558 63.808079"
             y="0"
             sodipodi:role="line"
             id="tspan198">Scenario </tspan></text>
</g></g><g
       id="g202"><g
         id="g204"
         clip-path="url(#clipPath208)"><text
           transform="matrix(1,0,0,-1,66,295.87)"
           style="font-variant:normal;font-weight:900;font-size:15.96000004px;font-family:Roboto;-inkscape-font-specification:'Roboto Heavy';writing-mode:lr-tb;fill:#ffffff;fill-opacity:1;fill-rule:nonzero;stroke:#ffffff;stroke-width:0.456;stroke-linecap:butt;stroke-linejoin:miter;stroke-miterlimit:10;stroke-dasharray:none;stroke-opacity:1"
           id="text212"><tspan
             x="0 8.7301197 17.268721 25.567921 31.0422 39.213718 48.21516 56.8974 65.5158"
             y="0"
             sodipodi:role="line"
             id="tspan210">Factsheet</tspan></text>
</g></g><g
       id="g214"><g
         id="g216"
         clip-path="url(#clipPath220)" /></g><path
       d="m 344.41,324.24 21.18,21.18 H 503.6 l 21.18,-21.18 V 294.29 L 503.6,273.11 H 365.59 l -21.18,21.18 z"
       style="fill:#8aafc8;fill-opacity:1;fill-rule:evenodd;stroke:none"
       id="path222"
       inkscape:connector-curvature="0" /><g
       id="g224"><g
         id="g226"
         clip-path="url(#clipPath230)"><text
           transform="matrix(1,0,0,-1,418.2,313.15)"
           style="font-variant:normal;font-weight:900;font-size:15.96000004px;font-family:Roboto;-inkscape-font-specification:'Roboto Heavy';writing-mode:lr-tb;fill:#ffffff;fill-opacity:1;fill-rule:nonzero;stroke:#ffffff;stroke-width:0.456;stroke-linecap:butt;stroke-linejoin:miter;stroke-miterlimit:10;stroke-dasharray:none;stroke-opacity:1"
           id="text234"><tspan
             x="0 10.31016 18.816839 24.291121 32.84568"
             y="0"
             sodipodi:role="line"
             id="tspan232">Data </tspan></text>
</g></g><g
       id="g236"><g
         id="g238"
         clip-path="url(#clipPath242)"><text
           transform="matrix(1,0,0,-1,393.96,295.87)"
           style="font-variant:normal;font-weight:900;font-size:15.96000004px;font-family:Roboto;-inkscape-font-specification:'Roboto Heavy';writing-mode:lr-tb;fill:#ffffff;fill-opacity:1;fill-rule:nonzero;stroke:#ffffff;stroke-width:0.456;stroke-linecap:butt;stroke-linejoin:miter;stroke-miterlimit:10;stroke-dasharray:none;stroke-opacity:1"
           id="text246"><tspan
             x="0 10.42188 16.42284 25.392361 33.691559 42.373798 50.545319 58.668961 63.089882 72.091316"
             y="0"
             sodipodi:role="line"
             id="tspan244">Processing</tspan></text>
</g></g><g
       id="g248"><g
         id="g250"
         clip-path="url(#clipPath254)" /></g><path
       d="m 661.55,324.24 21.18,21.18 h 138.02 l 21.18,-21.18 V 294.29 L 820.75,273.11 H 682.73 l -21.18,21.18 z"
       style="fill:#486980;fill-opacity:1;fill-rule:evenodd;stroke:none"
       id="path256"
       inkscape:connector-curvature="0" /><g
       id="g258"><g
         id="g260"
         clip-path="url(#clipPath264)"><text
           transform="matrix(1,0,0,-1,716.3,316.51)"
           style="font-variant:normal;font-weight:900;font-size:15.98400021px;font-family:Roboto;-inkscape-font-specification:'Roboto Heavy';writing-mode:lr-tb;fill:#ffffff;fill-opacity:1;fill-rule:nonzero;stroke:#ffffff;stroke-width:0.45669001;stroke-linecap:butt;stroke-linejoin:miter;stroke-miterlimit:10;stroke-dasharray:none;stroke-opacity:1"
           id="text268"><tspan
             x="0 8.6633282 13.058928 18.589392 27.236736 33.230736 41.718239 47.248703 56.26368 62.241695"
             y="0"
             sodipodi:role="line"
             id="tspan266">Literature</tspan></text>
</g></g><g
       id="g270"><g
         id="g272"
         clip-path="url(#clipPath276)" /></g><g
       id="g278"><g
         id="g280"
         clip-path="url(#clipPath284)"><text
           transform="matrix(1,0,0,-1,720.26,292.51)"
           style="font-variant:normal;font-weight:900;font-size:15.96000004px;font-family:Roboto;-inkscape-font-specification:'Roboto Heavy';writing-mode:lr-tb;fill:#ffffff;fill-opacity:1;fill-rule:nonzero;stroke:#ffffff;stroke-width:0.456;stroke-linecap:butt;stroke-linejoin:miter;stroke-miterlimit:10;stroke-dasharray:none;stroke-opacity:1"
           id="text288"><tspan
             x="0 8.7301197 17.73156 26.733 35.0322 40.538399 44.95932 53.928841"
             y="0"
             sodipodi:role="line"
             id="tspan286">Function</tspan></text>
</g></g><g
       id="g290"><g
         id="g292"
         clip-path="url(#clipPath296)" /></g><path
       d="m 344.41,421.07 21.18,21.18 H 503.6 l 21.18,-21.18 V 391.11 L 503.6,369.93 H 365.59 l -21.18,21.18 z"
       style="fill:#8aafc8;fill-opacity:1;fill-rule:evenodd;stroke:none"
       id="path298"
       inkscape:connector-curvature="0" /><g
       id="g300"><g
         id="g302"
         clip-path="url(#clipPath306)"><text
           transform="matrix(1,0,0,-1,412.08,401.38)"
           style="font-variant:normal;font-weight:900;font-size:15.96000004px;font-family:Roboto;-inkscape-font-specification:'Roboto Heavy';writing-mode:lr-tb;fill:#ffffff;fill-opacity:1;fill-rule:nonzero;stroke:#ffffff;stroke-width:0.456;stroke-linecap:butt;stroke-linejoin:miter;stroke-miterlimit:10;stroke-dasharray:none;stroke-opacity:1"
           id="text310"><tspan
             x="0 14.02884 22.99836 31.983841 40.66608"
             y="0"
             sodipodi:role="line"
             id="tspan308">Model</tspan></text>
</g></g><g
       id="g312"><g
         id="g314"
         clip-path="url(#clipPath318)" /></g><path
       d="m 11.346,516.81 21.18,21.18 H 170.54 l 21.18,-21.18 V 486.86 L 170.54,465.68 H 32.526 l -21.18,21.18 z"
       style="fill:#486980;fill-opacity:1;fill-rule:evenodd;stroke:none"
       id="path320"
       inkscape:connector-curvature="0" /><g
       id="g322"><g
         id="g324"
         clip-path="url(#clipPath328)"><text
           transform="matrix(1,0,0,-1,60.96,505.78)"
           style="font-variant:normal;font-weight:900;font-size:15.96000004px;font-family:Roboto;-inkscape-font-specification:'Roboto Heavy';writing-mode:lr-tb;fill:#ffffff;fill-opacity:1;fill-rule:nonzero;stroke:#ffffff;stroke-width:0.456;stroke-linecap:butt;stroke-linejoin:miter;stroke-miterlimit:10;stroke-dasharray:none;stroke-opacity:1"
           id="text332"><tspan
             x="0 8.7301197 14.77896 23.253719 37.05912 45.74136 57.32832 66.297836 72.34668 81.076797"
             y="0"
             sodipodi:role="line"
             id="tspan330">Framework </tspan></text>
</g></g><g
       id="g334"><g
         id="g336"
         clip-path="url(#clipPath340)"><text
           transform="matrix(1,0,0,-1,66,488.5)"
           style="font-variant:normal;font-weight:900;font-size:15.96000004px;font-family:Roboto;-inkscape-font-specification:'Roboto Heavy';writing-mode:lr-tb;fill:#ffffff;fill-opacity:1;fill-rule:nonzero;stroke:#ffffff;stroke-width:0.456;stroke-linecap:butt;stroke-linejoin:miter;stroke-miterlimit:10;stroke-dasharray:none;stroke-opacity:1"
           id="text344"><tspan
             x="0 8.7301197 17.268721 25.567921 31.0422 39.213718 48.21516 56.8974 65.5158"
             y="0"
             sodipodi:role="line"
             id="tspan342">Factsheet</tspan></text>
</g></g><g
       id="g346"><g
         id="g348"
         clip-path="url(#clipPath352)" /></g><path
       d="m 11.346,421.07 21.18,21.18 H 170.54 l 21.18,-21.18 V 391.11 L 170.54,369.93 H 32.526 l -21.18,21.18 z"
       style="fill:#486980;fill-opacity:1;fill-rule:evenodd;stroke:none"
       id="path354"
       inkscape:connector-curvature="0" /><g
       id="g356"><g
         id="g358"
         clip-path="url(#clipPath362)"><text
           transform="matrix(1,0,0,-1,78.96,410.02)"
           style="font-variant:normal;font-weight:900;font-size:15.96000004px;font-family:Roboto;-inkscape-font-specification:'Roboto Heavy';writing-mode:lr-tb;fill:#ffffff;fill-opacity:1;fill-rule:nonzero;stroke:#ffffff;stroke-width:0.456;stroke-linecap:butt;stroke-linejoin:miter;stroke-miterlimit:10;stroke-dasharray:none;stroke-opacity:1"
           id="text366"><tspan
             x="0 14.02884 22.99836 31.983841 40.66608 45.087002"
             y="0"
             sodipodi:role="line"
             id="tspan364">Model </tspan></text>
</g></g><g
       id="g368"><g
         id="g370"
         clip-path="url(#clipPath374)"><text
           transform="matrix(1,0,0,-1,66,392.74)"
           style="font-variant:normal;font-weight:900;font-size:15.96000004px;font-family:Roboto;-inkscape-font-specification:'Roboto Heavy';writing-mode:lr-tb;fill:#ffffff;fill-opacity:1;fill-rule:nonzero;stroke:#ffffff;stroke-width:0.456;stroke-linecap:butt;stroke-linejoin:miter;stroke-miterlimit:10;stroke-dasharray:none;stroke-opacity:1"
           id="text378"><tspan
             x="0 8.7301197 17.268721 25.567921 31.0422 39.213718 48.21516 56.8974 65.5158"
             y="0"
             sodipodi:role="line"
             id="tspan376">Factsheet</tspan></text>
</g></g><g
       id="g380"><g
         id="g382"
         clip-path="url(#clipPath386)" /></g><path
       d="m 344.41,516.81 21.18,21.18 H 503.6 l 21.18,-21.18 V 486.86 L 503.6,465.68 H 365.59 l -21.18,21.18 z"
       style="fill:#8aafc8;fill-opacity:1;fill-rule:evenodd;stroke:none"
       id="path388"
       inkscape:connector-curvature="0" /><g
       id="g390"><g
         id="g392"
         clip-path="url(#clipPath396)"><text
           transform="matrix(1,0,0,-1,394.08,497.14)"
           style="font-variant:normal;font-weight:900;font-size:15.96000004px;font-family:Roboto;-inkscape-font-specification:'Roboto Heavy';writing-mode:lr-tb;fill:#ffffff;fill-opacity:1;fill-rule:nonzero;stroke:#ffffff;stroke-width:0.456;stroke-linecap:butt;stroke-linejoin:miter;stroke-miterlimit:10;stroke-dasharray:none;stroke-opacity:1"
           id="text400"><tspan
             x="0 8.7301197 14.77896 23.253719 37.05912 45.74136 57.32832 66.297836 72.34668"
             y="0"
             sodipodi:role="line"
             id="tspan398">Framework</tspan></text>
</g></g><g
       id="g402"><g
         id="g404"
         clip-path="url(#clipPath408)" /></g><path
       d="m 366.34,345.42 v 23.03 h -1.5 v -23.03 z m 3.39,17.41 -4.14,7.11 -4.15,-7.11 c -0.21,-0.36 -0.09,-0.82 0.27,-1.03 0.36,-0.21 0.82,-0.09 1.02,0.27 l 3.5,6 h -1.29 l 3.5,-6 v 0 c 0.21,-0.36 0.67,-0.48 1.02,-0.27 0.36,0.21 0.48,0.67 0.27,1.03 z"
       style="fill:#262626;fill-opacity:1;fill-rule:nonzero;stroke:none"
       id="path410"
       inkscape:connector-curvature="0" /><path
       d="M 504.35,369.93 V 346.9 h -1.5 v 23.03 z m 3.4,-17.4 -4.15,-7.11 -4.15,7.11 c -0.21,0.35 -0.09,0.81 0.27,1.02 0.36,0.21 0.82,0.09 1.03,-0.27 l 3.5,-6 h -1.3 l 3.5,6 v 0 c 0.21,0.36 0.67,0.48 1.03,0.27 0.35,-0.21 0.48,-0.67 0.27,-1.02 z"
       style="fill:#262626;fill-opacity:1;fill-rule:nonzero;stroke:none"
       id="path412"
       inkscape:connector-curvature="0" /><path
       d="m 305.3,231.79 59.47,39.87 -0.83,1.24 -59.47,-39.87 z m 56.69,33.91 3.6,7.41 -8.22,-0.52 c -0.41,-0.02 -0.72,-0.38 -0.7,-0.79 0.03,-0.42 0.38,-0.73 0.8,-0.7 l 6.93,0.43 -0.72,1.08 -3.04,-6.25 c -0.18,-0.37 -0.02,-0.82 0.35,-1 0.37,-0.19 0.82,-0.03 1,0.34 z"
       style="fill:#262626;fill-opacity:1;fill-rule:nonzero;stroke:none"
       id="path414"
       inkscape:connector-curvature="0" /><path
       d="m 504,273.74 62.15,-39.9 -0.81,-1.26 -62.15,39.89 z m 59.26,-34 3.74,-7.33 -8.23,0.35 c -0.41,0.02 -0.73,0.37 -0.71,0.78 0.02,0.41 0.36,0.73 0.78,0.72 l 6.94,-0.3 -0.7,-1.09 -3.16,6.19 c -0.19,0.37 -0.04,0.82 0.33,1.01 0.37,0.18 0.82,0.04 1.01,-0.33 z"
       style="fill:#262626;fill-opacity:1;fill-rule:nonzero;stroke:none"
       id="path416"
       inkscape:connector-curvature="0" /><path
       d="m 191.72,517.56 h 151.2 v -1.5 h -151.2 z m 145.58,3.4 7.11,-4.15 -7.11,-4.14 c -0.36,-0.21 -0.82,-0.09 -1.03,0.27 -0.2,0.35 -0.08,0.81 0.27,1.02 l 6,3.5 v -1.29 l -6,3.5 c -0.35,0.21 -0.47,0.66 -0.27,1.02 0.21,0.36 0.67,0.48 1.03,0.27 z"
       style="fill:#262626;fill-opacity:1;fill-rule:nonzero;stroke:none"
       id="path418"
       inkscape:connector-curvature="0" /><path
       d="m 191.72,421.82 h 151.2 v -1.5 h -151.2 z m 145.58,3.4 7.11,-4.15 -7.11,-4.15 c -0.36,-0.21 -0.82,-0.09 -1.03,0.27 -0.2,0.36 -0.08,0.82 0.27,1.03 l 6,3.5 v -1.3 l -6,3.5 c -0.35,0.21 -0.47,0.67 -0.27,1.03 0.21,0.35 0.67,0.48 1.03,0.27 z"
       style="fill:#262626;fill-opacity:1;fill-rule:nonzero;stroke:none"
       id="path420"
       inkscape:connector-curvature="0" /><path
       d="m 366.34,465.68 v -21.95 h -1.5 v 21.95 z m 3.39,-16.32 -4.14,-7.11 -4.15,7.11 c -0.21,0.35 -0.09,0.81 0.27,1.02 0.36,0.21 0.82,0.09 1.02,-0.27 l 3.5,-6 h -1.29 l 3.5,6 v 0 c 0.21,0.36 0.67,0.48 1.02,0.27 0.36,-0.21 0.48,-0.67 0.27,-1.02 z"
       style="fill:#262626;fill-opacity:1;fill-rule:nonzero;stroke:none"
       id="path422"
       inkscape:connector-curvature="0" /><g
       id="g424"><g
         id="g426"
         clip-path="url(#clipPath430)"><path
           d="m 172.09,274.64 c 29.71,-27.99 76.48,-27.55 104.48,0.97 0.23,0.24 0.47,0.49 0.71,0.73 v 0 l -5.21,8.68 -9.7,3.8 v 0 c -20.56,-20.54 -54.78,-20.69 -76.7,-0.34 z"
           style="fill:#1f567d;fill-opacity:1;fill-rule:evenodd;stroke:none"
           id="path432"
           inkscape:connector-curvature="0" /></g></g><g
       id="g434"><g
         id="g436"
         clip-path="url(#clipPath440)"><path
           d="m 661.45,316.54 c -28.3,-0.01 -53.26,-17.92 -61.48,-44.09 v 0 l 12.57,-38.19 27.41,54.64 v 0 c 6.51,3.67 13.94,5.6 21.52,5.61 z"
           style="fill:#1f567d;fill-opacity:1;fill-rule:evenodd;stroke:none"
           id="path442"
           inkscape:connector-curvature="0" /></g></g><path
       d="m 504.35,465.68 v -21.95 h -1.5 v 21.95 z m 3.4,-16.32 -4.15,-7.11 -4.15,7.11 c -0.21,0.35 -0.09,0.81 0.27,1.02 0.36,0.21 0.82,0.09 1.03,-0.27 l 3.5,-6 h -1.3 l 3.5,6 v 0 c 0.21,0.36 0.67,0.48 1.03,0.27 0.35,-0.21 0.48,-0.67 0.27,-1.02 z"
       style="fill:#262626;fill-opacity:1;fill-rule:nonzero;stroke:none"
       id="path444"
       inkscape:connector-curvature="0" /></g></svg>