<?xml version="1.0" encoding="UTF-8" standalone="no"?>
<svg
   xmlns:dc="http://purl.org/dc/elements/1.1/"
   xmlns:cc="http://creativecommons.org/ns#"
   xmlns:rdf="http://www.w3.org/1999/02/22-rdf-syntax-ns#"
   xmlns:svg="http://www.w3.org/2000/svg"
   xmlns="http://www.w3.org/2000/svg"
   viewBox="0 0 708.75 708.75"
   height="708.75"
   width="708.75"
   xml:space="preserve"
   version="1.1"
   id="svg2"><metadata
     id="metadata8"><rdf:RDF><cc:Work
         rdf:about=""><dc:format>image/svg+xml</dc:format><dc:type
           rdf:resource="http://purl.org/dc/dcmitype/StillImage" /></cc:Work></rdf:RDF></metadata><defs
     id="defs6"><clipPath
       id="clipPath16"
       clipPathUnits="userSpaceOnUse"><path
         style="clip-rule:evenodd"
         id="path18"
         d="m 0,1.8311e-4 567,0 0,566.99999689 -567,0 L 0,1.8311e-4 Z" /></clipPath></defs><g
     transform="matrix(1.25,0,0,-1.25,0,708.75)"
     id="g10"><g
       id="g12"><g
         clip-path="url(#clipPath16)"
         id="g14"><path
           id="path20"
           style="fill:#ffffff;fill-opacity:1;fill-rule:evenodd;stroke:none"
           d="m 0,6.1035e-5 567,0 0,566.999998965 -567,0 L 0,6.1035e-5 Z" /></g></g><path
       id="path22"
       style="fill:#1f567d;fill-opacity:1;fill-rule:evenodd;stroke:none"
       d="m 56.76,283.5 c 0,125.23 101.51,226.74 226.74,226.74 125.23,0 226.74,-101.51 226.74,-226.74 C 510.24,158.27 408.73,56.76 283.5,56.76 158.27,56.76 56.76,158.27 56.76,283.5 Z" /><path
       id="path24"
       style="fill:#ffffff;fill-opacity:1;fill-rule:evenodd;stroke:none"
       d="m 127.08,284.1 c 0,86.12 69.79,155.94 155.88,155.94 86.09,0 155.88,-69.82 155.88,-155.94 0,-86.12 -69.79,-155.94 -155.88,-155.94 -86.09,0 -155.88,69.82 -155.88,155.94 z" /><path
       id="path26"
       style="fill:#ffffff;fill-opacity:1;fill-rule:evenodd;stroke:none"
       d="m 113.52,56.76 170.04,226.8 170.04,-226.8 -340.08,0 z" /><path
       id="path28"
       style="fill:#1f567d;fill-opacity:0.41176004;fill-rule:evenodd;stroke:none"
       d="m 226.86,266.79 16.59,16.59 23.46,0 16.59,-16.59 0,-23.46 -16.59,-16.59 -23.46,0 -16.59,16.59 0,23.46 z" /><path
       id="path30"
       style="fill:none;stroke:#ffffff;stroke-width:3;stroke-linecap:butt;stroke-linejoin:round;stroke-miterlimit:10;stroke-dasharray:none;stroke-opacity:1"
       d="m 226.86,266.79 16.59,16.59 23.46,0 16.59,-16.59 0,-23.46 -16.59,-16.59 -23.46,0 -16.59,16.59 0,23.46 z" /><path
       id="path32"
       style="fill:#1f567d;fill-opacity:0.54901997;fill-rule:evenodd;stroke:none"
       d="m 226.86,210.15 16.59,16.59 23.58,0 16.59,-16.59 0,-23.46 -16.59,-16.59 -23.58,0 -16.59,16.59 0,23.46 z" /><path
       id="path34"
       style="fill:none;stroke:#ffffff;stroke-width:3;stroke-linecap:butt;stroke-linejoin:round;stroke-miterlimit:10;stroke-dasharray:none;stroke-opacity:1"
       d="m 226.86,210.15 16.59,16.59 23.58,0 16.59,-16.59 0,-23.46 -16.59,-16.59 -23.58,0 -16.59,16.59 0,23.46 z" /><path
       id="path36"
       style="fill:#1f567d;fill-opacity:0.41176004;fill-rule:evenodd;stroke:none"
       d="m 283.62,323.55 16.59,16.59 23.46,0 16.59,-16.59 0,-23.46 -16.59,-16.59 -23.46,0 -16.59,16.59 0,23.46 z" /><path
       id="path38"
       style="fill:none;stroke:#ffffff;stroke-width:3;stroke-linecap:butt;stroke-linejoin:round;stroke-miterlimit:10;stroke-dasharray:none;stroke-opacity:1"
       d="m 283.62,323.55 16.59,16.59 23.46,0 16.59,-16.59 0,-23.46 -16.59,-16.59 -23.46,0 -16.59,16.59 0,23.46 z" /><path
       id="path40"
       style="fill:#1f567d;fill-opacity:0.54901997;fill-rule:evenodd;stroke:none"
       d="m 170.22,266.79 16.59,16.59 23.46,0 16.59,-16.59 0,-23.46 -16.59,-16.59 -23.46,0 -16.59,16.59 0,23.46 z" /><path
       id="path42"
       style="fill:none;stroke:#ffffff;stroke-width:3;stroke-linecap:butt;stroke-linejoin:round;stroke-miterlimit:10;stroke-dasharray:none;stroke-opacity:1"
       d="m 170.22,266.79 16.59,16.59 23.46,0 16.59,-16.59 0,-23.46 -16.59,-16.59 -23.46,0 -16.59,16.59 0,23.46 z" /><path
       id="path44"
       style="fill:#1f567d;fill-opacity:0.54901997;fill-rule:evenodd;stroke:none"
       d="m 226.86,323.55 16.59,16.59 23.58,0 16.59,-16.59 0,-23.46 -16.59,-16.59 -23.58,0 -16.59,16.59 0,23.46 z" /><path
       id="path46"
       style="fill:none;stroke:#ffffff;stroke-width:3;stroke-linecap:butt;stroke-linejoin:round;stroke-miterlimit:10;stroke-dasharray:none;stroke-opacity:1"
       d="m 226.86,323.55 16.59,16.59 23.58,0 16.59,-16.59 0,-23.46 -16.59,-16.59 -23.58,0 -16.59,16.59 0,23.46 z" /><path
       id="path48"
       style="fill:#1f567d;fill-opacity:0.54901997;fill-rule:evenodd;stroke:none"
       d="m 340.26,323.55 16.59,16.59 23.46,0 16.59,-16.59 0,-23.58 -16.59,-16.59 -23.46,0 -16.59,16.59 0,23.58 z" /><path
       id="path50"
       style="fill:none;stroke:#ffffff;stroke-width:3;stroke-linecap:butt;stroke-linejoin:round;stroke-miterlimit:10;stroke-dasharray:none;stroke-opacity:1"
       d="m 340.26,323.55 16.59,16.59 23.46,0 16.59,-16.59 0,-23.58 -16.59,-16.59 -23.46,0 -16.59,16.59 0,23.58 z" /><path
       id="path52"
       style="fill:#1f567d;fill-opacity:0.25097997;fill-rule:evenodd;stroke:none"
       d="m 283.62,380.19 16.59,16.59 23.46,0 16.59,-16.59 0,-23.46 -16.59,-16.59 -23.46,0 -16.59,16.59 0,23.46 z" /><path
       id="path54"
       style="fill:none;stroke:#ffffff;stroke-width:3;stroke-linecap:butt;stroke-linejoin:round;stroke-miterlimit:10;stroke-dasharray:none;stroke-opacity:1"
       d="m 283.62,380.19 16.59,16.59 23.46,0 16.59,-16.59 0,-23.46 -16.59,-16.59 -23.46,0 -16.59,16.59 0,23.46 z" /><path
       id="path56"
       style="fill:#1f567d;fill-opacity:0.25097997;fill-rule:evenodd;stroke:none"
       d="m 340.26,266.79 16.59,16.59 23.46,0 16.59,-16.59 0,-23.46 -16.59,-16.59 -23.46,0 -16.59,16.59 0,23.46 z" /><path
       id="path58"
       style="fill:none;stroke:#ffffff;stroke-width:3;stroke-linecap:butt;stroke-linejoin:round;stroke-miterlimit:10;stroke-dasharray:none;stroke-opacity:1"
       d="m 340.26,266.79 16.59,16.59 23.46,0 16.59,-16.59 0,-23.46 -16.59,-16.59 -23.46,0 -16.59,16.59 0,23.46 z" /><path
       id="path60"
       style="fill:#1f567d;fill-opacity:0.25097997;fill-rule:evenodd;stroke:none"
       d="m 226.86,380.19 16.59,16.59 23.58,0 16.59,-16.59 0,-23.46 -16.59,-16.59 -23.58,0 -16.59,16.59 0,23.46 z" /><path
       id="path62"
       style="fill:none;stroke:#ffffff;stroke-width:3;stroke-linecap:butt;stroke-linejoin:round;stroke-miterlimit:10;stroke-dasharray:none;stroke-opacity:1"
       d="m 226.86,380.19 16.59,16.59 23.58,0 16.59,-16.59 0,-23.46 -16.59,-16.59 -23.58,0 -16.59,16.59 0,23.46 z" /><path
       id="path64"
       style="fill:#ffffff;fill-opacity:1;fill-rule:evenodd;stroke:none"
       d="m 206.46,19.98 153.12,0 0,124.8 -153.12,0 0,-124.8 z" /><path
       id="path66"
       style="fill:none;stroke:#ffffff;stroke-width:2.03999996;stroke-linecap:butt;stroke-linejoin:round;stroke-miterlimit:10;stroke-dasharray:none;stroke-opacity:1"
       d="m 206.46,19.98 153.12,0 0,124.8 -153.12,0 0,-124.8 z" /></g></svg>
