<?xml version="1.0" encoding="UTF-8" standalone="no"?>
<svg
   xmlns:dc="http://purl.org/dc/elements/1.1/"
   xmlns:cc="http://creativecommons.org/ns#"
   xmlns:rdf="http://www.w3.org/1999/02/22-rdf-syntax-ns#"
   xmlns:svg="http://www.w3.org/2000/svg"
   xmlns="http://www.w3.org/2000/svg"
   xmlns:sodipodi="http://sodipodi.sourceforge.net/DTD/sodipodi-0.dtd"
   xmlns:inkscape="http://www.inkscape.org/namespaces/inkscape"
   viewBox="0 0 708.75 708.75"
   height="708.75"
   width="708.75"
   xml:space="preserve"
   version="1.1"
   id="svg2"
   sodipodi:docname="OEP-Logo_white.svg"
   inkscape:version="0.92.3 (2405546, 2018-03-11)"><sodipodi:namedview
     pagecolor="#ffffff"
     bordercolor="#666666"
     borderopacity="1"
     objecttolerance="10"
     gridtolerance="10"
     guidetolerance="10"
     inkscape:pageopacity="0"
     inkscape:pageshadow="2"
     inkscape:window-width="1920"
     inkscape:window-height="1052"
     id="namedview34"
     showgrid="false"
     inkscape:zoom="1.3319224"
     inkscape:cx="368.92105"
     inkscape:cy="356.26412"
     inkscape:window-x="1920"
     inkscape:window-y="0"
     inkscape:window-maximized="1"
     inkscape:current-layer="layer1" /><metadata
     id="metadata8"><rdf:RDF><cc:Work
         rdf:about=""><dc:format>image/svg+xml</dc:format><dc:type
           rdf:resource="http://purl.org/dc/dcmitype/StillImage" /><dc:title /></cc:Work></rdf:RDF></metadata><defs
     id="defs6"><clipPath
       id="clipPath16"
       clipPathUnits="userSpaceOnUse"><path
         style="clip-rule:evenodd"
         id="path18"
         d="m 0,1.8311e-4 567,0 0,566.99999689 -567,0 L 0,1.8311e-4 Z" /></clipPath></defs><g
     transform="matrix(1.25,0,0,-1.25,0,708.75)"
     id="g10"><g
       id="g12"><g
         clip-path="url(#clipPath16)"
         id="g14" /></g><path
       style="fill:#ffffff;fill-opacity:1;fill-rule:evenodd;stroke:none;stroke-width:1.25"
       d="M 354.375 70.949219 C 197.8375 70.949219 70.949219 197.8375 70.949219 354.375 C 70.949219 447.12361 115.49906 529.4585 184.36328 581.16406 L 237.58984 510.16992 C 189.80965 474.64505 158.84961 417.7524 158.84961 353.625 C 158.84961 245.975 246.08672 158.69922 353.69922 158.69922 C 461.31172 158.69922 548.55078 245.975 548.55078 353.625 C 548.55078 417.32108 518.00349 473.87835 470.76953 509.44922 L 524.48242 581.0918 C 593.2921 529.38181 637.80078 447.08055 637.80078 354.375 C 637.80078 197.8375 510.9125 70.949219 354.375 70.949219 z "
       transform="matrix(0.8,0,0,-0.8,0,567)"
       id="path22" /></g><g
     inkscape:groupmode="layer"
     id="layer1"
     inkscape:label="Layer 1"
     style="display:inline"><path
       style="opacity:0.6984127;fill:#ffffff;fill-opacity:0.54901963;stroke:none;stroke-width:1px;stroke-linecap:butt;stroke-linejoin:miter;stroke-opacity:1"
       d="m 214.68115,376.04246 19.68902,-19.58981 h 27.67274 l 19.643,19.70935 v 27.7391 L 262.0761,423.51092 H 234.30381 L 214.6774,403.88451 Z"
       id="path843"
       inkscape:connector-curvature="0" /><path
       inkscape:connector-curvature="0"
       id="path861"
       d="m 285.47749,376.04246 19.68902,-19.58981 h 27.67274 l 19.643,19.70935 v 27.7391 l -19.60981,19.60982 h -27.77229 l -19.62641,-19.62641 z"
       style="opacity:0.6984127;fill:#f6f6f6;fill-opacity:0.41176471;stroke:none;stroke-width:1px;stroke-linecap:butt;stroke-linejoin:miter;stroke-opacity:1" /><path
       style="opacity:0.6984127;fill:#ffffff;fill-opacity:0.54901963;stroke:none;stroke-width:1px;stroke-linecap:butt;stroke-linejoin:miter;stroke-opacity:1"
       d="m 285.47749,446.74254 19.68902,-19.58981 h 27.67274 l 19.643,19.70935 v 27.7391 L 332.87244,494.211 h -27.77229 l -19.62641,-19.62641 z"
       id="path863"
       inkscape:connector-curvature="0" /><path
       style="opacity:0.6984127;fill:#ffffff;fill-opacity:0.54901963;stroke:none;stroke-width:1px;stroke-linecap:butt;stroke-linejoin:miter;stroke-opacity:1"
       d="m 285.47749,305.04254 19.68902,-19.58981 h 27.67274 l 19.643,19.70935 v 27.7391 L 332.87244,352.511 h -27.77229 l -19.62641,-19.62641 z"
       id="path865"
       inkscape:connector-curvature="0" /><path
       inkscape:connector-curvature="0"
       id="path867"
       d="m 285.47749,234.34254 19.68902,-19.58981 h 27.67274 l 19.643,19.70935 v 27.7391 L 332.87244,281.811 h -27.77229 l -19.62641,-19.62641 z"
       style="opacity:0.6984127;fill:#e5e5e5;fill-opacity:0.25098041;stroke:none;stroke-width:1px;stroke-linecap:butt;stroke-linejoin:miter;stroke-opacity:1" /><path
       inkscape:connector-curvature="0"
       id="path869"
       d="m 356.37775,305.04254 19.68902,-19.58981 h 27.67274 l 19.643,19.70935 v 27.7391 L 403.7727,352.511 H 376.00041 L 356.374,332.88459 Z"
       style="opacity:0.6984127;fill:#f6f6f6;fill-opacity:0.41176471;stroke:none;stroke-width:1px;stroke-linecap:butt;stroke-linejoin:miter;stroke-opacity:1" /><path
       style="opacity:0.6984127;fill:#eaeaea;fill-opacity:0.40000001;stroke:none;stroke-width:1px;stroke-linecap:butt;stroke-linejoin:miter;stroke-opacity:1"
       d="m 356.37775,234.34254 19.68902,-19.58981 h 27.67274 l 19.643,19.70935 v 27.7391 L 403.7727,281.811 H 376.00041 L 356.374,262.18459 Z"
       id="path871"
       inkscape:connector-curvature="0" /><path
       style="opacity:0.6984127;fill:#ffffff;fill-opacity:0.54901963;stroke:none;stroke-width:1px;stroke-linecap:butt;stroke-linejoin:miter;stroke-opacity:1"
       d="m 427.27775,305.04254 19.68902,-19.58981 h 27.67274 l 19.643,19.70935 v 27.7391 L 474.6727,352.511 H 446.90041 L 427.274,332.88459 Z"
       id="path873"
       inkscape:connector-curvature="0" /><path
       inkscape:connector-curvature="0"
       id="path875"
       d="m 427.27775,375.94254 19.68902,-19.58981 h 27.67274 l 19.643,19.70935 v 27.7391 L 474.6727,423.411 H 446.90041 L 427.274,403.78459 Z"
       style="opacity:0.6984127;fill:#e5e5e5;fill-opacity:0.25098041;stroke:none;stroke-width:1px;stroke-linecap:butt;stroke-linejoin:miter;stroke-opacity:1" /></g></svg>
